<svg width="625.1" height="473.8" xmlns="http://www.w3.org/2000/svg"><g stroke-linejoin="round" paint-order="stroke fill markers"><g stroke="#000" stroke-width="20"><path d="M70.7 389.8c4 0 7.3 1.4 10.1 4.2 2.8 2.8 4.2 6.2 4.2 10.1v49.6H34.3c-4 0-7.3-1.4-10.1-4.2-2.8-2.8-4.2-6.2-4.2-10.1v-23.6h53.1v-11.7c0-.7-.2-1.2-.7-1.7-.5-.5-1-.7-1.7-.7H20v-11.9zm2.4 52v-14.1H31.9v11.7c0 .7.2 1.2.7 1.7.5.5 1 .7 1.7.7zm114.7-52h12.7l-24 63.9h-9.7l-21.5-47.5-20.3 47.5-.2-.1.1.1h-9.6l-25.1-63.9h12.6l17.3 42.4 18.4-42.4h13.6l19.5 42.4zm67.2 0c4 0 7.3 1.4 10.1 4.2 2.8 2.8 4.2 6.2 4.2 10.1v23.6h-53.1v11.7c0 .7.2 1.2.7 1.7.5.5 1 .7 1.7.7h50.7v11.9h-50.7c-4 0-7.3-1.4-10.1-4.2-2.8-2.8-4.2-6.2-4.2-10.1v-35.3c0-4 1.4-7.3 4.2-10.1 2.8-2.8 6.2-4.2 10.1-4.2zm-38.8 26h41.2v-11.7c0-.7-.2-1.2-.7-1.7-.5-.5-1-.7-1.7-.7h-36.4c-.7 0-1.2.2-1.7.7-.5.5-.7 1-.7 1.7zm129-11.6v2.4h-11.9v-2.4c0-.7-.2-1.2-.7-1.7-.5-.5-1-.7-1.7-.7h-36.4c-.7 0-1.2.2-1.7.7-.5.5-.7 1-.7 1.7v9.3c0 .7.2 1.2.7 1.7.5.5 1 .7 1.7.7h36.4c4 0 7.3 1.4 10.1 4.2 2.8 2.8 4.2 6.2 4.2 10.1v9.3c0 4-1.4 7.3-4.2 10.1-2.8 2.8-6.2 4.2-10.1 4.2h-36.4c-4 0-7.3-1.4-10.1-4.2-2.8-2.8-4.2-6.2-4.2-10.1v-2.4h11.9v2.4c0 .7.2 1.2.7 1.7.5.5 1 .7 1.7.7h36.4c.7 0 1.2-.2 1.7-.7.5-.5.7-1 .7-1.7v-9.3c0-.7-.2-1.2-.7-1.7-.5-.5-1-.7-1.7-.7h-36.4c-4 0-7.3-1.4-10.1-4.2-2.8-2.8-4.2-6.2-4.2-10.1v-9.3c0-4 1.4-7.3 4.2-10.1 2.8-2.8 6.2-4.2 10.1-4.2h36.4c4 0 7.3 1.4 10.1 4.2 2.8 2.7 4.2 6.1 4.2 10.1zm25.2-14.4h36.4c4 0 7.3 1.4 10.1 4.2 2.8 2.8 4.2 6.2 4.2 10.1v35.3c0 4-1.4 7.3-4.2 10.1-2.8 2.8-6.2 4.2-10.1 4.2h-36.4c-4 0-7.3-1.4-10.1-4.2-2.8-2.8-4.2-6.2-4.2-10.1v-35.3c0-4 1.4-7.3 4.2-10.1 2.8-2.8 6.2-4.2 10.1-4.2zm36.4 11.9h-36.4c-.7 0-1.2.2-1.7.7-.5.5-.7 1-.7 1.7v35.3c0 .7.2 1.2.7 1.7.5.5 1 .7 1.7.7h36.4c.7 0 1.2-.2 1.7-.7.5-.5.7-1 .7-1.7v-35.3c0-.7-.2-1.2-.7-1.7-.5-.4-1-.7-1.7-.7zm107.5-11.9c4 0 7.3 1.4 10.1 4.2 2.8 2.8 4.2 6.2 4.2 10.1v49.6h-11.8v-49.6c0-.7-.2-1.2-.7-1.7-.5-.5-1.1-.7-1.8-.7h-25.2c-.7 0-1.2.2-1.7.7-.5.5-.7 1-.7 1.7v49.6h-11.9v-49.6c0-.7-.2-1.2-.7-1.7-.5-.5-1-.7-1.7-.7h-25.3c-.7 0-1.2.2-1.7.7-.5.5-.7 1-.7 1.7v49.6h-11.9v-63.9zm76.5 0c4 0 7.3 1.4 10.1 4.2 2.8 2.8 4.2 6.2 4.2 10.1v23.6H552v11.7c0 .7.2 1.2.7 1.7.5.5 1 .7 1.7.7h50.7v11.9h-50.7c-4 0-7.3-1.4-10.1-4.2-2.8-2.8-4.2-6.2-4.2-10.1v-35.3c0-4 1.4-7.3 4.2-10.1 2.8-2.8 6.2-4.2 10.1-4.2zm-38.8 26h41.2v-11.7c0-.7-.2-1.2-.7-1.7-.5-.5-1-.7-1.7-.7h-36.4c-.7 0-1.2.2-1.7.7-.5.5-.7 1-.7 1.7z" fill="#aaa5c3"/><path fill="#fc60a8" d="M605 157.7 455 20.1l-21.1 23 125 114.6H66.2L191.2 43l-21.1-23-150 137.7H20v90.7c0 41 39.5 74.4 88 74.4h92.5c48.5 0 88-33.4 88-74.4v-59.6h48v59.6c0 41 39.5 74.4 88 74.4H517c48.5 0 88-33.4 88-74.4z"/></g><g stroke-width="13.333"><path d="M82 189.585v95h12l19-22h-9v-51h6l18-22Z"/><path d="m232 167.585-49 22h-45l-19 22h45.729l-79.729 96 49-23h45l19-22h-45.572Z"/><path d="m223 189.585-19 23h9v50h-6l-19 22h47v-95Z"/></g><g fill="#101010" stroke-width="13.333"><path d="M363.845 189.786v18h52l-53 63v14h85v-18h-54l53-62v-15Z"/><path shape-rendering="crispEdges" d="M458.845 189.786h22v95h-22z"/><path d="M544.044 189.385c-29.5 0-52 20.8-52 48.1 0 27.5 22.102 48.3 51.102 48.3 13.7 0 27.5-4.7 37.7-12v-39h-48l30 14v13.346c-6.13 3.121-13.09 5.354-18.7 5.354-17 0-30.3-12.8-30.3-29.6 0-16.6 13.198-29.5 30.198-29.5 9.1 0 18.8 3.7 25.9 10l13-15c-9.7-8.5-24.6-14-38.9-14z"/></g></g></svg>